<?xml version="1.0" encoding="utf-8"?>
<!-- Generator: Adobe Illustrator 21.0.0, SVG Export Plug-In . SVG Version: 6.00 Build 0)  -->
<svg version="1.1" id="Laag_1" xmlns="http://www.w3.org/2000/svg" xmlns:xlink="http://www.w3.org/1999/xlink" x="0px" y="0px"
	 viewBox="0 0 50 50" enable-background="new 0 0 50 50" xml:space="preserve">
<path fill="#FFFFFF" d="M25.4,0.5c-13.8,0-25,11.2-25,25s11.2,25,25,25s25-11.2,25-25S39.2,0.5,25.4,0.5z M40.7,19.8l0,0.9
	c0,9.1-6.9,19.5-19.5,19.5c-3.9,0-7.5-1.1-10.5-3.1c0.5,0.1,1.1,0.1,1.6,0.1c3.2,0,6.2-1.1,8.5-2.9c-3-0.1-5.5-2-6.4-4.8
	c0.4,0.1,0.8,0.1,1.3,0.1c0.6,0,1.2-0.1,1.8-0.2C14.4,28.8,12,26,12,22.7v-0.1c0.9,0.5,2,0.8,3.1,0.9c-1.8-1.2-3.1-3.3-3.1-5.7
	c0-1.3,0.3-2.4,0.9-3.5c3.4,4.2,8.4,6.9,14.2,7.2C27,21,27,20.5,27,19.9c0-3.8,3.1-6.9,6.9-6.9c2,0,3.8,0.8,5,2.2
	c1.6-0.3,3-0.9,4.4-1.7c-0.5,1.6-1.6,2.9-3,3.8c1.4-0.2,2.7-0.5,3.9-1.1C43.2,17.7,42.1,18.9,40.7,19.8z"/>
</svg>
