<?xml version="1.0" encoding="utf-8"?>
<!-- Generator: Adobe Illustrator 21.0.0, SVG Export Plug-In . SVG Version: 6.00 Build 0)  -->
<svg version="1.1" id="Laag_1" xmlns="http://www.w3.org/2000/svg" xmlns:xlink="http://www.w3.org/1999/xlink" x="0px" y="0px"
	 viewBox="0 0 500 500" style="enable-background:new 0 0 500 500;" xml:space="preserve">
<style type="text/css">
	.st0{fill:#CDE7E5;}
</style>
<path class="st0" d="M251.5,0C113.4,0,1.5,111.9,1.5,250s111.9,250,250,250s250-111.9,250-250S389.6,0,251.5,0z M359.3,132.7
	c0,4.5-3.7,8.2-8.2,8.2l-35.3,0c-24.3,0-28.8,9.5-28.8,28.2V208h61.6c2.2,0,4.3,0.9,5.8,2.4s2.4,3.6,2.4,5.8l0,66.4
	c0,4.6-3.7,8.2-8.2,8.2h-61.6v167.7c0,4.5-3.7,8.2-8.2,8.2h-68.8c-4.6,0-8.2-3.7-8.2-8.2V290.9H149c-4.5,0-8.2-3.7-8.2-8.2v-66.4
	c0-4.6,3.7-8.2,8.2-8.2h52.7v-45.9c0-60.4,38.1-99.5,96.9-99.5l52.4,0.1c4.5,0,8.2,3.7,8.2,8.2V132.7z"/>
</svg>
