<?xml version="1.0" encoding="utf-8"?>
<!-- Generator: Adobe Illustrator 21.0.0, SVG Export Plug-In . SVG Version: 6.00 Build 0)  -->
<svg version="1.1" id="Laag_1" xmlns="http://www.w3.org/2000/svg" xmlns:xlink="http://www.w3.org/1999/xlink" x="0px" y="0px"
	 viewBox="0 0 50 50" enable-background="new 0 0 50 50" xml:space="preserve">
<g>
	<path fill="#FFFFFF" d="M25.5,0.5c-13.8,0-25,11.2-25,25s11.2,25,25,25s25-11.2,25-25S39.3,0.5,25.5,0.5z M19.3,37.9h-6.4V18.8h6.4
		V37.9z M16.1,16.2L16.1,16.2c-2.2,0-3.6-1.5-3.6-3.3c0-1.9,1.4-3.3,3.6-3.3c2.2,0,3.5,1.4,3.6,3.3C19.7,14.7,18.3,16.2,16.1,16.2z
		 M42.2,37.9h-6.4V27.7c0-2.6-0.9-4.3-3.2-4.3c-1.8,0-2.8,1.2-3.3,2.3c-0.2,0.4-0.2,1-0.2,1.6v10.7h-6.4c0,0,0.1-17.3,0-19.1h6.4
		v2.7c0.8-1.3,2.4-3.2,5.7-3.2c4.2,0,7.3,2.7,7.3,8.6V37.9z"/>
	<path fill="#FFFFFF" d="M29.2,21.6L29.2,21.6C29.2,21.5,29.1,21.6,29.2,21.6L29.2,21.6z"/>
</g>
</svg>
