<?xml version="1.0" encoding="utf-8"?>
<!-- Generator: Adobe Illustrator 21.0.0, SVG Export Plug-In . SVG Version: 6.00 Build 0)  -->
<svg version="1.1" id="Laag_1" xmlns="http://www.w3.org/2000/svg" xmlns:xlink="http://www.w3.org/1999/xlink" x="0px" y="0px"
	 viewBox="0 0 500 500" style="enable-background:new 0 0 500 500;" xml:space="preserve">
<style type="text/css">
	.st0{fill:#CDE7E5;}
</style>
<path class="st0" d="M250,1.5C111.9,1.5,0,113.4,0,251.5s111.9,250,250,250s250-111.9,250-250S388.1,1.5,250,1.5z M403.1,194.7
	l0.2,8.9c0,90.8-69.1,195.4-195.4,195.4c-38.8,0-74.9-11.4-105.3-30.9c5.4,0.6,10.8,0.9,16.4,0.9c32.2,0,61.8-10.9,85.3-29.4
	c-30-0.5-55.4-20.4-64.2-47.7c4.2,0.8,8.5,1.3,12.9,1.3c6.3,0,12.3-0.9,18.1-2.4c-31.4-6.3-55.1-34.1-55.1-67.4v-0.9
	c9.3,5.1,19.9,8.2,31.1,8.6c-18.4-12.3-30.6-33.3-30.6-57.2c0-12.6,3.4-24.4,9.3-34.5c33.9,41.6,84.5,68.9,141.6,71.8
	c-1.2-5-1.8-10.3-1.8-15.7c0-37.9,30.8-68.7,68.7-68.7c19.8,0,37.6,8.3,50.1,21.7c15.7-3.1,30.3-8.8,43.7-16.7
	c-5.1,16-16,29.5-30.2,38c13.9-1.7,27.1-5.4,39.4-10.8C428.3,173,416.6,185.1,403.1,194.7z"/>
</svg>
