<?xml version="1.0" encoding="utf-8"?>
<!-- Generator: Adobe Illustrator 21.0.0, SVG Export Plug-In . SVG Version: 6.00 Build 0)  -->
<svg version="1.1" id="Laag_1" xmlns="http://www.w3.org/2000/svg" xmlns:xlink="http://www.w3.org/1999/xlink" x="0px" y="0px"
	 viewBox="0 0 500 500" style="enable-background:new 0 0 500 500;" xml:space="preserve">
<style type="text/css">
	.st0{fill:#CDE7E5;}
</style>
<g>
	<path class="st0" d="M251.5,1.5c-138.1,0-250,111.9-250,250s111.9,250,250,250s250-111.9,250-250S389.6,1.5,251.5,1.5z
		 M189.3,375.8h-63.6V184.4h63.6V375.8z M157.5,158.3h-0.4c-21.3,0-35.2-14.7-35.2-33.1c0-18.8,14.2-33.1,36-33.1
		c21.8,0,35.2,14.3,35.6,33.1C193.5,143.6,179.7,158.3,157.5,158.3z M418.8,375.8h-63.6V273.4c0-25.7-9.2-43.3-32.2-43.3
		c-17.6,0-28,11.8-32.6,23.3c-1.7,4.1-2.1,9.8-2.1,15.5v106.9h-63.6c0,0,0.9-173.4,0-191.4h63.6v27.1c8.5-13,23.6-31.6,57.4-31.6
		c41.9,0,73.3,27.4,73.3,86.1V375.8z"/>
	<path class="st0" d="M288.1,212.2v-0.6c-0.1,0.2-0.3,0.4-0.4,0.6H288.1z"/>
</g>
</svg>
