<?xml version="1.0" encoding="utf-8"?>
<!-- Generator: Adobe Illustrator 21.0.0, SVG Export Plug-In . SVG Version: 6.00 Build 0)  -->
<svg version="1.1" id="Laag_1" xmlns="http://www.w3.org/2000/svg" xmlns:xlink="http://www.w3.org/1999/xlink" x="0px" y="0px"
	 viewBox="0 0 50 50" enable-background="new 0 0 50 50" xml:space="preserve">
<path fill="#FFFFFF" d="M25.5,0c-13.8,0-25,11.2-25,25s11.2,25,25,25s25-11.2,25-25S39.3,0,25.5,0z M36.3,13.3
	c0,0.5-0.4,0.8-0.8,0.8l-3.5,0c-2.4,0-2.9,0.9-2.9,2.8v3.9h6.2c0.2,0,0.4,0.1,0.6,0.2s0.2,0.4,0.2,0.6l0,6.6c0,0.5-0.4,0.8-0.8,0.8
	H29v16.8c0,0.5-0.4,0.8-0.8,0.8h-6.9c-0.5,0-0.8-0.4-0.8-0.8V29.1h-5.3c-0.5,0-0.8-0.4-0.8-0.8v-6.6c0-0.5,0.4-0.8,0.8-0.8h5.3v-4.6
	c0-6,3.8-9.9,9.7-9.9l5.2,0c0.5,0,0.8,0.4,0.8,0.8V13.3z"/>
</svg>
